<?xml version="1.0" standalone="no"?>
<!DOCTYPE svg PUBLIC "-//W3C//DTD SVG 20010904//EN"
 "http://www.w3.org/TR/2001/REC-SVG-20010904/DTD/svg10.dtd">
<svg version="1.0" xmlns="http://www.w3.org/2000/svg"
 width="314.000000pt" height="314.000000pt" viewBox="0 0 314.000000 314.000000"
 preserveAspectRatio="xMidYMid meet">
<metadata>
Created by potrace 1.14, written by Peter Selinger 2001-2017
</metadata>
<g transform="translate(0.000000,314.000000) scale(0.100000,-0.100000)"
fill="#000000" stroke="none">
<path d="M1576 2934 c-26 -25 -65 -98 -88 -161 -19 -53 -70 -259 -83 -336 -3
-17 -17 -86 -30 -152 -13 -66 -26 -136 -29 -155 -5 -28 -45 -264 -60 -345 -10
-51 -19 -102 -22 -120 -2 -11 -9 -47 -14 -80 -21 -127 -102 -496 -135 -615
-34 -119 -102 -278 -142 -329 -92 -119 -204 -213 -323 -272 -66 -33 -215 -77
-320 -96 -49 -8 -90 -27 -90 -41 0 -8 -8 -21 -17 -28 -23 -16 -11 -29 14 -15
10 6 72 28 138 50 364 120 426 150 546 270 124 125 182 249 254 542 35 145
108 510 126 628 9 62 40 233 115 641 64 347 132 580 169 580 38 0 88 -95 130
-246 23 -82 110 -481 140 -644 14 -74 30 -155 35 -180 5 -25 19 -97 30 -160
74 -409 126 -637 180 -800 106 -314 291 -483 588 -535 82 -14 175 -36 193 -45
13 -7 19 -7 19 0 0 5 7 10 15 10 8 0 15 4 15 10 0 12 -51 26 -165 46 -83 14
-144 29 -223 53 -58 18 -161 81 -218 134 -115 106 -177 236 -249 512 -19 74
-36 144 -39 157 -2 13 -9 43 -15 68 -5 25 -12 56 -15 70 -16 86 -59 305 -71
360 -11 54 -70 376 -90 500 -36 216 -105 504 -145 608 -44 115 -86 154 -124
116z m56 -21 c9 -10 21 -29 27 -43 l12 -25 -18 25 c-10 13 -26 33 -35 42 -10
10 -14 18 -10 18 5 0 16 -8 24 -17z m-641 -2290 c-5 -10 -24 -34 -41 -53 -26
-29 -25 -26 7 18 37 52 52 67 34 35z m-81 -96 c0 -2 -19 -21 -42 -42 l-43 -40
40 43 c36 39 45 47 45 39z m-100 -92 c0 -2 -10 -9 -22 -15 -22 -11 -22 -10 -4
4 21 17 26 19 26 11z m-483 -191 c-3 -3 -12 -4 -19 -1 -8 3 -5 6 6 6 11 1 17
-2 13 -5z"/>
</g>
</svg>
